<svg xmlns="http://www.w3.org/2000/svg" width="1100" height="654" viewBox="0 0 1100 654" font-family="Inter, -apple-system, system-ui, sans-serif">
<style>  .title{font-size:18px;font-weight:700;fill:#1f2937}  .subtitle{font-size:12px;fill:#6b7280}  .section{font-size:13px;font-weight:600;fill:#374151}  .scenario-id{font-size:13px;font-weight:500;fill:#1f2937;font-family:"JetBrains Mono",monospace}  .scenario-label{font-size:11px;fill:#6b7280}  .status-text{font-size:12px;font-weight:600}  .leg-glyph{font-size:14px;font-weight:700;font-family:"Segoe UI Symbol","Apple Color Emoji",sans-serif}  .leg-source{font-size:9px;fill:#9ca3af;font-family:"JetBrains Mono",monospace}  .footer{font-size:11px;fill:#9ca3af}  .phase-b{font-size:9px;font-weight:600;fill:#7c3aed}</style>
<rect x="0" y="0" width="1100" height="654" fill="#ffffff"/>
<text class="title" x="40" y="36">PCE Redundancy Matrix</text>
<text class="subtitle" x="40" y="56">computed at 2026-05-19 06:02 UTC · 0/13 redundant · window 24h</text>
<text class="subtitle" x="40" y="74">STRICT MODE — 13/13 P0 ≥ 3 V-GREEN required for v1.1.6</text>
<line x1="40" y1="94" x2="1060" y2="94" stroke="#e5e7eb" stroke-width="1"/>
<text class="section" x="40" y="114">P0 Web (5)</text>
<text class="scenario-id" x="64" y="142">f1_chatgpt_web</text>
<text class="scenario-label" x="64" y="154">ChatGPT Web (chatgpt.com)</text>
<text class="phase-b" x="284" y="142">PHASE B</text>
<text class="leg-glyph" x="360" y="142" fill="#94a3b8">·</text>
<text class="leg-source" x="348" y="154">L1</text>
<text class="leg-glyph" x="430" y="142" fill="#94a3b8">·</text>
<text class="leg-source" x="418" y="154">L3a</text>
<text class="leg-glyph" x="500" y="142" fill="#94a3b8">·</text>
<text class="leg-source" x="488" y="154">L3g</text>
<circle cx="880" cy="140" r="7" fill="#94a3b8"/>
<text class="status-text" x="896" y="144" fill="#94a3b8">no data <tspan fill="#6b7280" font-weight="400">0/3</tspan></text>
<text class="scenario-id" x="64" y="176">f1_claude_web</text>
<text class="scenario-label" x="64" y="188">Claude Web (claude.ai)</text>
<text class="phase-b" x="284" y="176">PHASE B</text>
<text class="leg-glyph" x="360" y="176" fill="#94a3b8">·</text>
<text class="leg-source" x="348" y="188">L1</text>
<text class="leg-glyph" x="430" y="176" fill="#94a3b8">·</text>
<text class="leg-source" x="418" y="188">L3a</text>
<text class="leg-glyph" x="500" y="176" fill="#94a3b8">·</text>
<text class="leg-source" x="488" y="188">L4b</text>
<circle cx="880" cy="174" r="7" fill="#94a3b8"/>
<text class="status-text" x="896" y="178" fill="#94a3b8">no data <tspan fill="#6b7280" font-weight="400">0/3</tspan></text>
<text class="scenario-id" x="64" y="210">f1_gemini_web</text>
<text class="scenario-label" x="64" y="222">Gemini Web (gemini.google.com)</text>
<text class="phase-b" x="284" y="210">PHASE B</text>
<text class="leg-glyph" x="360" y="210" fill="#94a3b8">·</text>
<text class="leg-source" x="348" y="222">L1</text>
<text class="leg-glyph" x="430" y="210" fill="#94a3b8">·</text>
<text class="leg-source" x="418" y="222">L3a</text>
<text class="leg-glyph" x="500" y="210" fill="#94a3b8">·</text>
<text class="leg-source" x="488" y="222">L4b</text>
<circle cx="880" cy="208" r="7" fill="#94a3b8"/>
<text class="status-text" x="896" y="212" fill="#94a3b8">no data <tspan fill="#6b7280" font-weight="400">0/3</tspan></text>
<text class="scenario-id" x="64" y="244">f1_gas</text>
<text class="scenario-label" x="64" y="256">Google AI Studio (aistudio.google.com)</text>
<text class="phase-b" x="284" y="244">PHASE B</text>
<text class="leg-glyph" x="360" y="244" fill="#94a3b8">·</text>
<text class="leg-source" x="348" y="256">L1</text>
<text class="leg-glyph" x="430" y="244" fill="#94a3b8">·</text>
<text class="leg-source" x="418" y="256">L3a</text>
<text class="leg-glyph" x="500" y="244" fill="#94a3b8">·</text>
<text class="leg-source" x="488" y="256">L4b</text>
<circle cx="880" cy="242" r="7" fill="#94a3b8"/>
<text class="status-text" x="896" y="246" fill="#94a3b8">no data <tspan fill="#6b7280" font-weight="400">0/3</tspan></text>
<text class="scenario-id" x="64" y="278">f1_grok_web</text>
<text class="scenario-label" x="64" y="290">Grok Web (grok.com)</text>
<text class="phase-b" x="284" y="278">PHASE B</text>
<text class="leg-glyph" x="360" y="278" fill="#94a3b8">·</text>
<text class="leg-source" x="348" y="290">L1</text>
<text class="leg-glyph" x="430" y="278" fill="#94a3b8">·</text>
<text class="leg-source" x="418" y="290">L3a</text>
<text class="leg-glyph" x="500" y="278" fill="#94a3b8">·</text>
<text class="leg-source" x="488" y="290">L3g</text>
<circle cx="880" cy="276" r="7" fill="#94a3b8"/>
<text class="status-text" x="896" y="280" fill="#94a3b8">no data <tspan fill="#6b7280" font-weight="400">0/3</tspan></text>
<line x1="40" y1="300" x2="1060" y2="300" stroke="#e5e7eb" stroke-width="1"/>
<text class="section" x="40" y="320">P0 Desktop (8)</text>
<text class="scenario-id" x="64" y="348">f4_p1_claude_desktop</text>
<text class="scenario-label" x="64" y="360">Claude Desktop (Win MSIX/Squirrel + macOS)</text>
<text class="leg-glyph" x="360" y="348" fill="#94a3b8">·</text>
<text class="leg-source" x="348" y="360">L1</text>
<text class="leg-glyph" x="430" y="348" fill="#94a3b8">·</text>
<text class="leg-source" x="418" y="360">L3g</text>
<text class="leg-glyph" x="500" y="348" fill="#94a3b8">·</text>
<text class="leg-source" x="488" y="360">L3f</text>
<circle cx="880" cy="346" r="7" fill="#94a3b8"/>
<text class="status-text" x="896" y="350" fill="#94a3b8">no data <tspan fill="#6b7280" font-weight="400">0/3</tspan></text>
<text class="scenario-id" x="64" y="382">f5_p4_windsurf</text>
<text class="scenario-label" x="64" y="394">Windsurf (IDE-class MCP-aware)</text>
<text class="leg-glyph" x="360" y="382" fill="#94a3b8">·</text>
<text class="leg-source" x="348" y="394">L1</text>
<text class="leg-glyph" x="430" y="382" fill="#94a3b8">·</text>
<text class="leg-source" x="418" y="394">L3f</text>
<text class="leg-glyph" x="500" y="382" fill="#94a3b8">·</text>
<text class="leg-source" x="488" y="394">L4a</text>
<circle cx="880" cy="380" r="7" fill="#94a3b8"/>
<text class="status-text" x="896" y="384" fill="#94a3b8">no data <tspan fill="#6b7280" font-weight="400">0/3</tspan></text>
<text class="scenario-id" x="64" y="416">f6_p6_claude_code_cli</text>
<text class="scenario-label" x="64" y="428">Claude Code CLI (@anthropic-ai/claude-code)</text>
<text class="leg-glyph" x="360" y="416" fill="#94a3b8">·</text>
<text class="leg-source" x="348" y="428">L1</text>
<text class="leg-glyph" x="430" y="416" fill="#94a3b8">·</text>
<text class="leg-source" x="418" y="428">L3g</text>
<text class="leg-glyph" x="500" y="416" fill="#94a3b8">·</text>
<text class="leg-source" x="488" y="428">L3h</text>
<circle cx="880" cy="414" r="7" fill="#94a3b8"/>
<text class="status-text" x="896" y="418" fill="#94a3b8">no data <tspan fill="#6b7280" font-weight="400">0/3</tspan></text>
<text class="scenario-id" x="64" y="450">f6_p7_codex_cli</text>
<text class="scenario-label" x="64" y="462">Codex CLI (OpenAI)</text>
<text class="leg-glyph" x="360" y="450" fill="#94a3b8">·</text>
<text class="leg-source" x="348" y="462">L1</text>
<text class="leg-glyph" x="430" y="450" fill="#94a3b8">·</text>
<text class="leg-source" x="418" y="462">L3g</text>
<text class="leg-glyph" x="500" y="450" fill="#94a3b8">·</text>
<text class="leg-source" x="488" y="462">L3h</text>
<circle cx="880" cy="448" r="7" fill="#94a3b8"/>
<text class="status-text" x="896" y="452" fill="#94a3b8">no data <tspan fill="#6b7280" font-weight="400">0/3</tspan></text>
<text class="scenario-id" x="64" y="484">f6_p8_gemini_cli</text>
<text class="scenario-label" x="64" y="496">Gemini CLI (Google)</text>
<text class="leg-glyph" x="360" y="484" fill="#94a3b8">·</text>
<text class="leg-source" x="348" y="496">L1</text>
<text class="leg-glyph" x="430" y="484" fill="#94a3b8">·</text>
<text class="leg-source" x="418" y="496">L3g</text>
<text class="leg-glyph" x="500" y="484" fill="#94a3b8">·</text>
<text class="leg-source" x="488" y="496">L3h</text>
<circle cx="880" cy="482" r="7" fill="#94a3b8"/>
<text class="status-text" x="896" y="486" fill="#94a3b8">no data <tspan fill="#6b7280" font-weight="400">0/3</tspan></text>
<text class="scenario-id" x="64" y="518">f4_p2_chatgpt_desktop</text>
<text class="scenario-label" x="64" y="530">ChatGPT Desktop (Win MSIX + macOS)</text>
<text class="phase-b" x="284" y="518">PHASE B</text>
<text class="leg-glyph" x="360" y="518" fill="#94a3b8">·</text>
<text class="leg-source" x="348" y="530">L1</text>
<text class="leg-glyph" x="430" y="518" fill="#94a3b8">·</text>
<text class="leg-source" x="418" y="530">L4b</text>
<circle cx="880" cy="516" r="7" fill="#94a3b8"/>
<text class="status-text" x="896" y="520" fill="#94a3b8">no data <tspan fill="#6b7280" font-weight="400">0/3</tspan></text>
<text class="scenario-id" x="64" y="552">f5_p3_cursor</text>
<text class="scenario-label" x="64" y="564">Cursor (IDE-class, gRPC-web protobuf)</text>
<text class="phase-b" x="284" y="552">PHASE B</text>
<text class="leg-glyph" x="360" y="552" fill="#94a3b8">·</text>
<text class="leg-source" x="348" y="564">L1</text>
<text class="leg-glyph" x="430" y="552" fill="#94a3b8">·</text>
<text class="leg-source" x="418" y="564">L3f</text>
<text class="leg-glyph" x="500" y="552" fill="#94a3b8">·</text>
<text class="leg-source" x="488" y="564">L4a</text>
<circle cx="880" cy="550" r="7" fill="#94a3b8"/>
<text class="status-text" x="896" y="554" fill="#94a3b8">no data <tspan fill="#6b7280" font-weight="400">0/3</tspan></text>
<text class="scenario-id" x="64" y="586">f5_p5_github_copilot</text>
<text class="scenario-label" x="64" y="598">GitHub Copilot (VS Code)</text>
<text class="phase-b" x="284" y="586">PHASE B</text>
<text class="leg-glyph" x="360" y="586" fill="#94a3b8">·</text>
<text class="leg-source" x="348" y="598">L1</text>
<text class="leg-glyph" x="430" y="586" fill="#94a3b8">·</text>
<text class="leg-source" x="418" y="598">L3c</text>
<text class="leg-glyph" x="500" y="586" fill="#94a3b8">·</text>
<text class="leg-source" x="488" y="598">L3f</text>
<circle cx="880" cy="584" r="7" fill="#94a3b8"/>
<text class="status-text" x="896" y="588" fill="#94a3b8">no data <tspan fill="#6b7280" font-weight="400">0/3</tspan></text>
<line x1="40" y1="612" x2="1060" y2="612" stroke="#e5e7eb" stroke-width="1"/>
<text class="footer" x="40" y="632">Live data via /api/v1/supervisor/status · dedup: 0 claims (0 dupes, hit_ratio=0.00)</text>
<text class="footer" x="40" y="646">See Docs/stability/redundancy-sprint/SCOPE-LOCK-2026-05-15.md · tools/render_redundancy_matrix.py</text>
</svg>
